<?xml version="1.0" standalone="no"?>
<!DOCTYPE svg PUBLIC "-//W3C//DTD SVG 20010904//EN"
 "http://www.w3.org/TR/2001/REC-SVG-20010904/DTD/svg10.dtd">
<svg version="1.0" xmlns="http://www.w3.org/2000/svg"
 width="323.000000pt" height="323.000000pt" viewBox="0 0 323.000000 323.000000"
 preserveAspectRatio="xMidYMid meet">

<g transform="translate(0.000000,323.000000) scale(0.100000,-0.100000)"
fill="#ffffff" stroke="none">
<path d="M1213 2435 l71 -185 104 0 c57 0 101 4 98 8 -3 5 -18 45 -35 90 l-30
82 180 0 c99 0 178 -4 175 -8 -3 -5 -18 -45 -35 -90 l-30 -82 102 0 102 0 68
178 c37 98 67 181 67 185 0 4 -204 7 -454 7 l-453 0 70 -185z"/>
<path d="M1310 2191 c0 -5 28 -83 63 -173 35 -89 99 -256 143 -370 43 -114 81
-208 84 -208 3 0 33 73 67 163 34 89 96 252 138 362 43 110 79 208 82 218 5
15 -4 17 -94 17 l-99 0 -45 -125 c-24 -69 -46 -125 -49 -125 -3 0 -25 56 -50
125 l-45 125 -97 0 c-54 0 -98 -4 -98 -9z"/>
<path d="M975 2098 c-3 -7 -4 -244 -3 -527 l3 -514 90 -48 90 -48 5 357 5 357
128 -260 c71 -143 149 -304 175 -357 l46 -98 91 0 92 0 60 128 c33 70 107 228
164 350 l104 224 3 -346 c1 -190 5 -346 7 -346 3 0 46 21 95 46 l90 47 -2 521
-3 521 -95 3 -95 3 -14 -33 c-8 -18 -39 -85 -69 -148 -30 -63 -67 -142 -82
-175 -15 -33 -49 -105 -75 -160 -25 -55 -67 -145 -93 -200 -26 -55 -56 -119
-67 -143 l-21 -43 -118 243 c-65 134 -164 336 -219 451 l-100 207 -94 0 c-66
0 -95 -4 -98 -12z"/>
</g>
</svg>
